<?xml version="1.0" standalone="no"?>
<!DOCTYPE svg PUBLIC "-//W3C//DTD SVG 20010904//EN"
 "http://www.w3.org/TR/2001/REC-SVG-20010904/DTD/svg10.dtd">
<svg version="1.0" xmlns="http://www.w3.org/2000/svg"
 width="512.000000pt" height="512.000000pt" viewBox="0 0 512.000000 512.000000"
 preserveAspectRatio="xMidYMid meet">

<g transform="translate(0.000000,512.000000) scale(0.100000,-0.100000)"
fill="#06BCC1" stroke="none">
<path d="M2220 4759 c-411 -25 -864 -97 -1017 -161 -158 -65 -308 -204 -386
-356 -24 -48 -100 -232 -167 -409 -68 -178 -127 -323 -131 -323 -20 0 -99 73
-137 127 -58 84 -99 108 -182 108 -51 0 -73 -5 -103 -24 -74 -45 -112 -141
-89 -223 19 -70 104 -179 206 -265 l49 -41 -43 -43 c-57 -59 -134 -177 -160
-247 -58 -155 -55 -78 -55 -1297 l0 -1120 24 -38 c13 -21 42 -50 64 -65 l41
-27 466 0 466 0 41 27 c22 15 51 44 64 65 24 37 24 43 27 326 l3 287 1359 0
1359 0 3 -288 c3 -282 3 -288 27 -325 13 -21 42 -50 64 -65 l41 -27 466 0 466
0 41 27 c22 15 51 44 64 65 l24 38 0 421 0 420 -27 41 c-15 22 -44 51 -65 64
l-38 24 -642 3 -643 3 0 269 c0 158 -5 291 -11 322 -39 187 -200 348 -387 387
-74 15 -1430 15 -1504 0 -187 -39 -348 -200 -387 -387 -6 -31 -11 -164 -11
-322 l0 -270 -500 0 -501 0 3 618 3 618 37 76 c45 91 103 147 196 191 l67 32
1856 0 1855 0 76 -37 c91 -45 147 -103 191 -196 l32 -67 5 -301 5 -301 27 -40
c41 -63 90 -88 169 -88 54 0 72 5 106 27 22 15 51 44 64 65 24 37 24 44 27
313 2 180 -1 301 -8 350 -25 157 -106 322 -213 432 l-45 47 38 26 c54 37 139
129 186 199 35 54 39 65 39 125 0 79 -25 128 -88 169 -34 22 -52 27 -106 27
-84 0 -122 -22 -185 -108 -41 -54 -132 -137 -139 -126 -2 2 -43 108 -91 234
-208 542 -223 572 -354 697 -131 125 -245 181 -457 222 -457 89 -1004 125
-1475 95z m889 -414 c304 -30 582 -80 666 -119 66 -31 129 -86 162 -144 15
-25 82 -188 150 -362 l122 -315 -825 -3 c-453 -1 -1194 -1 -1647 0 l-823 3
123 320 c149 389 174 429 301 494 98 50 512 115 887 141 183 12 701 4 884 -15z
m136 -2307 c51 -23 55 -45 55 -323 l0 -255 -124 0 -124 0 -3 128 c-4 120 -6
131 -31 169 -41 63 -90 88 -169 88 -54 0 -72 -5 -106 -27 -22 -15 -51 -44 -64
-65 -21 -34 -24 -52 -28 -165 l-3 -128 -98 0 -98 0 -3 128 c-4 120 -6 131 -31
169 -41 63 -90 88 -169 88 -54 0 -72 -5 -106 -27 -22 -15 -51 -44 -64 -65 -21
-34 -24 -52 -28 -165 l-3 -128 -124 0 -124 0 0 258 c1 274 3 292 51 318 33 18
1354 20 1394 2z m-2445 -1133 l0 -155 -200 0 -200 0 0 155 0 155 200 0 200 0
0 -155z m3920 0 l0 -155 -200 0 -200 0 0 155 0 155 200 0 200 0 0 -155z"/>
<path fill="#F7B2B7" d="M732 2339 c-47 -14 -109 -80 -123 -131 -23 -89 12 -182 88 -229 36
-23 47 -24 204 -24 163 0 166 0 206 27 62 41 88 90 88 168 0 78 -26 127 -88
168 -39 26 -46 27 -191 29 -83 1 -166 -2 -184 -8z"/>
<path fill="#F7B2B7" d="M4052 2339 c-47 -14 -109 -80 -123 -131 -23 -89 12 -182 88 -229 36
-23 47 -24 204 -24 163 0 166 0 206 27 62 41 88 90 88 168 0 78 -26 127 -88
168 -39 26 -46 27 -191 29 -83 1 -166 -2 -184 -8z"/>
</g>
</svg>
